<?xml version="1.0" encoding="UTF-8"?><svg id="_图层_1" xmlns="http://www.w3.org/2000/svg" viewBox="0 0 569.02 200.5"><defs><style>.cls-1,.cls-2,.cls-3{stroke-width:0px;}.cls-2{fill:#fff;}.cls-3{fill:#0152d7;}</style></defs><path class="cls-1" d="m238.31,78.18h18.49l-14.76,84.55h-18.49l14.76-84.55Zm5.52-32.95h19.09l-3.43,19.09h-19.09l3.43-19.09Z"/><path class="cls-1" d="m411.72,49.85l-45.03,112.88h-24.01l-4.92-83.95-37.28,83.95h-24.01l-1.34-112.88h19.98l-.3,88.42,38.77-88.42h21.77l4.47,88.42,34.14-88.42h17.74Z"/><path class="cls-1" d="m419.32,78.18h18.49l-14.76,84.55h-18.49l14.76-84.55Zm5.52-32.95h19.09l-3.43,19.09h-19.09l3.43-19.09Z"/><path class="cls-1" d="m499.69,116.35l17.15,46.37h-19.98l-13.27-37.58h-12.67l-6.56,37.58h-18.49l20.73-118.99h18.49l-11.63,66.65h11.93l25.05-32.21h20.43l-31.16,38.17Z"/><path class="cls-1" d="m544.42,78.18h18.49l-14.76,84.55h-18.49l14.76-84.55Zm5.52-32.95h19.09l-3.43,19.09h-19.09l3.43-19.09Z"/><path class="cls-3" d="m57.51,155.41l16.75-94.18h-23.47l-16.73,94.18h23.45Zm82.82-79.83h43.2l-59.3-41.83-4.83,27.48h-33.37l-2.55,14.35h44.97l-8.4,4.03c-4.4,1.95-5.17,7.22-5.17,7.22l-12.15,68.58h23.45l14.15-79.83Zm-40.08,124.67C45.03,200.25.24,155.48.24,100.25S45.03.25,100.24.25s100,44.77,100,100-44.77,100-100,100Z"/><path class="cls-2" d="m183.53,75.58h-43.2l-14.15,79.83h-23.45l12.15-68.58s.77-5.27,5.17-7.22l8.4-4.03h-44.97l2.55-14.35h33.37l4.83-27.48,59.3,41.83Z"/><polygon class="cls-2" points="74.26 61.23 57.51 155.41 34.06 155.41 50.79 61.23 74.26 61.23"/></svg>