<svg xmlns="http://www.w3.org/2000/svg" viewBox="0 0 16 16" class="design-iconfont">
  <path d="M8.0002,2.9525 C8.8392,2.9525 9.6612,3.0775 10.4422,3.3225 C11.2002,3.5605 11.9002,3.9045 12.5252,4.3475 C13.7962,5.2485 14.6662,6.5075 14.9752,7.8915 L14.9752,7.8915 L15.0002,7.9995 L14.9752,8.1085 C14.6662,9.4925 13.7962,10.7515 12.5252,11.6525 C11.9002,12.0955 11.2002,12.4405 10.4422,12.6775 C9.6612,12.9225 8.8392,13.0465 8.0002,13.0465 C7.1612,13.0465 6.3392,12.9225 5.5572,12.6775 C4.8002,12.4405 4.0992,12.0955 3.4742,11.6525 C2.2042,10.7515 1.3342,9.4925 1.0242,8.1085 L1.0242,8.1085 L1.0002,7.9995 L1.0242,7.8915 C1.3342,6.5075 2.2042,5.2485 3.4742,4.3475 C4.0992,3.9045 4.8002,3.5605 5.5572,3.3225 C6.3392,3.0775 7.1612,2.9525 8.0002,2.9525 Z M8.0002,3.9525 C7.2612,3.9525 6.5412,4.0625 5.8562,4.2765 C5.1982,4.4825 4.5912,4.7815 4.0522,5.1635 C3.0162,5.8985 2.3012,6.9005 2.0242,7.9995 C2.3012,9.0995 3.0162,10.1025 4.0522,10.8365 C4.5912,11.2185 5.1982,11.5175 5.8562,11.7235 C6.5412,11.9385 7.2612,12.0465 8.0002,12.0465 C8.7382,12.0465 9.4592,11.9385 10.1432,11.7235 C10.8022,11.5175 11.4092,11.2185 11.9482,10.8365 C12.9832,10.1025 13.6992,9.0995 13.9752,7.9995 C13.6992,6.9005 12.9832,5.8985 11.9482,5.1635 C11.4092,4.7815 10.8022,4.4825 10.1432,4.2765 C9.4592,4.0625 8.7382,3.9525 8.0002,3.9525 Z M8,6.1246 C9.034,6.1246 9.872,6.9646 9.872,7.9996 C9.872,9.0356 9.034,9.8746 8,9.8746 C6.967,9.8746 6.128,9.0356 6.128,7.9996 C6.128,6.9646 6.967,6.1246 8,6.1246 Z" fill="#808892" fill-rule="evenodd"/>
</svg>
